M48
; DRILL file {KiCad 5.1.10-8.fc34} date Fri Nov 19 15:19:41 2021
; FORMAT={-:-/ absolute / inch / decimal}
; #@! TF.CreationDate,2021-11-19T15:19:41+01:00
; #@! TF.GenerationSoftware,Kicad,Pcbnew,5.1.10-8.fc34
; #@! TF.FileFunction,Plated,1,2,PTH
FMAT,2
INCH
T1C0.0157
T2C0.0295
T3C0.0315
T4C0.0354
T5C0.0394
T6C0.0433
%
G90
G05
T1
X7.595Y-4.72
X7.7Y-4.675
X7.785Y-4.175
X7.825Y-4.725
X7.9Y-5.035
X7.9Y-5.16
X7.9Y-5.285
X7.9Y-5.415
X7.9Y-5.54
X7.9Y-5.665
X7.9Y-5.79
X7.9Y-5.91
X7.9Y-6.035
X7.9Y-6.165
X7.9Y-6.29
X7.9Y-6.415
X7.9Y-6.54
X8.025Y-4.725
X8.025Y-4.9
X8.06Y-4.17
X8.075Y-4.675
X8.075Y-4.975
X8.075Y-5.125
X8.075Y-5.35
X8.075Y-5.725
X8.075Y-6.1
X8.075Y-6.475
X8.125Y-4.625
X8.125Y-4.85
X8.125Y-5.225
X8.125Y-5.6
X8.125Y-5.975
X8.125Y-6.35
X8.185Y-5.015
X8.2Y-4.725
X8.2Y-4.9
X8.2Y-5.125
X8.2Y-6.475
X8.2715Y-5.825
X8.3Y-4.85
X8.345Y-5.04
X8.36Y-4.2
X8.375Y-5.8
X8.395Y-5.04
X8.425Y-5.2
X8.445Y-5.04
X8.45Y-4.675
X8.45Y-5.3
X8.45Y-5.75
X8.45Y-5.85
X8.475Y-5.2
X8.5Y-5.3
X8.525Y-5.2
X8.55Y-5.3
X8.57Y-4.845
X8.575Y-4.26
X8.575Y-4.41
X8.575Y-4.725
X8.6Y-6.475
X8.62Y-4.845
X8.635Y-4.41
X8.64Y-4.225
X8.67Y-4.845
X8.69Y-4.41
X8.7Y-4.26
X8.725Y-6.425
X8.825Y-4.675
X8.825Y-5.75
X8.825Y-6.425
X8.875Y-5.05
X8.875Y-5.175
X8.925Y-5.05
X8.925Y-5.175
X8.9375Y-5.8625
X8.95Y-4.725
X8.95Y-5.8
X8.97Y-4.845
X8.975Y-5.05
X8.975Y-5.175
X9.0Y-6.475
X9.025Y-4.475
X9.025Y-4.525
X9.025Y-4.575
X9.025Y-4.8
X9.025Y-4.85
X9.045Y-4.2
X9.05Y-6.475
X9.1Y-6.475
X9.16Y-4.385
X9.2Y-5.9
X9.225Y-4.675
X9.29Y-4.385
X9.3Y-4.85
X9.35Y-4.725
X9.35Y-4.85
X9.37Y-6.525
X9.375Y-6.375
X9.4Y-4.85
X9.41Y-4.39
X9.525Y-4.725
X9.525Y-5.1
X9.525Y-5.4
X9.525Y-5.475
X9.525Y-5.85
X9.525Y-6.225
X9.575Y-4.95
X9.575Y-5.2
X9.575Y-5.35
X9.575Y-5.725
X9.575Y-6.1
X9.575Y-6.55
X9.6Y-4.675
X9.61Y-4.175
X9.625Y-5.0
X9.625Y-6.4
X9.65Y-4.625
X9.725Y-4.725
X9.745Y-4.915
X9.745Y-5.285
X9.745Y-6.04
X9.75Y-5.035
X9.75Y-5.165
X9.75Y-5.41
X9.75Y-5.91
X9.75Y-6.16
X9.75Y-6.29
X9.75Y-6.405
X9.75Y-6.54
X9.885Y-4.17
X9.91Y-4.615
X9.915Y-4.39
X10.04Y-4.655
T2
X9.3Y-5.0
X9.3Y-5.2
X9.3Y-5.4
X9.35Y-5.0
X9.35Y-5.2
X9.35Y-5.4
X9.4Y-5.0
X9.4Y-5.2
X9.4Y-5.4
T3
X7.575Y-4.45
X7.575Y-4.55
X7.7Y-4.45
X7.7Y-4.55
X7.825Y-4.45
X7.825Y-4.55
X7.85Y-4.85
X7.85Y-4.975
X7.85Y-5.1
X7.85Y-5.225
X7.85Y-5.35
X7.85Y-5.475
X7.85Y-5.6
X7.85Y-5.725
X7.85Y-5.85
X7.85Y-5.975
X7.85Y-6.1
X7.85Y-6.225
X7.85Y-6.35
X7.85Y-6.475
X7.85Y-6.6
X7.95Y-4.45
X7.95Y-4.55
X7.95Y-4.85
X7.95Y-4.975
X7.95Y-5.1
X7.95Y-5.225
X7.95Y-5.35
X7.95Y-5.475
X7.95Y-5.6
X7.95Y-5.725
X7.95Y-5.85
X7.95Y-5.975
X7.95Y-6.1
X7.95Y-6.225
X7.95Y-6.35
X7.95Y-6.475
X7.95Y-6.6
X8.075Y-4.45
X8.075Y-4.55
X8.2Y-4.45
X8.2Y-4.55
X8.325Y-4.45
X8.325Y-4.55
X8.45Y-4.15
X8.45Y-4.55
X8.575Y-4.15
X8.575Y-4.55
X8.7Y-4.15
X8.7Y-4.55
X8.825Y-4.15
X8.825Y-4.55
X8.95Y-4.15
X8.95Y-4.55
X9.1Y-4.45
X9.1Y-4.55
X9.225Y-4.45
X9.225Y-4.55
X9.325Y-5.8
X9.325Y-5.95
X9.325Y-6.095
X9.325Y-6.3
X9.325Y-6.45
X9.325Y-6.6
X9.35Y-4.45
X9.35Y-4.55
X9.425Y-5.8
X9.425Y-5.95
X9.425Y-6.095
X9.425Y-6.3
X9.425Y-6.45
X9.425Y-6.6
X9.475Y-4.45
X9.475Y-4.55
X9.6Y-4.45
X9.6Y-4.55
X9.7Y-4.85
X9.7Y-4.975
X9.7Y-5.1
X9.7Y-5.225
X9.7Y-5.35
X9.7Y-5.475
X9.7Y-5.6
X9.7Y-5.725
X9.7Y-5.85
X9.7Y-5.975
X9.7Y-6.1
X9.7Y-6.225
X9.7Y-6.35
X9.7Y-6.475
X9.7Y-6.6
X9.725Y-4.45
X9.725Y-4.55
X9.8Y-4.85
X9.8Y-4.975
X9.8Y-5.1
X9.8Y-5.225
X9.8Y-5.35
X9.8Y-5.475
X9.8Y-5.6
X9.8Y-5.725
X9.8Y-5.85
X9.8Y-5.975
X9.8Y-6.1
X9.8Y-6.225
X9.8Y-6.35
X9.8Y-6.475
X9.8Y-6.6
X9.85Y-4.45
X9.85Y-4.55
X9.975Y-4.45
X9.975Y-4.55
X10.1Y-4.45
X10.1Y-4.55
T4
X7.575Y-4.25
X7.575Y-5.175
X7.575Y-5.45
X7.575Y-5.725
X7.575Y-6.0
X7.575Y-6.275
X7.625Y-4.25
X7.625Y-5.175
X7.625Y-5.45
X7.625Y-5.725
X7.625Y-6.0
X7.625Y-6.275
X7.675Y-4.25
X7.675Y-5.175
X7.675Y-5.45
X7.675Y-5.725
X7.675Y-6.0
X7.675Y-6.275
X7.725Y-4.25
X7.725Y-5.175
X7.725Y-5.45
X7.725Y-5.725
X7.725Y-6.0
X7.725Y-6.275
X7.85Y-4.25
X7.9Y-4.25
X7.95Y-4.25
X8.0Y-4.25
X8.125Y-4.25
X8.175Y-4.25
X8.225Y-4.25
X8.275Y-4.25
X9.125Y-4.25
X9.175Y-4.25
X9.225Y-4.25
X9.275Y-4.25
X9.4Y-4.25
X9.45Y-4.25
X9.5Y-4.25
X9.55Y-4.25
X9.675Y-4.25
X9.725Y-4.25
X9.775Y-4.25
X9.825Y-4.25
X9.925Y-5.175
X9.925Y-5.45
X9.925Y-5.725
X9.925Y-6.0
X9.925Y-6.275
X9.95Y-4.25
X9.975Y-5.175
X9.975Y-5.45
X9.975Y-5.725
X9.975Y-6.0
X9.975Y-6.275
X10.0Y-4.25
X10.025Y-5.175
X10.025Y-5.45
X10.025Y-5.725
X10.025Y-6.0
X10.025Y-6.275
X10.05Y-4.25
X10.075Y-5.175
X10.075Y-5.45
X10.075Y-5.725
X10.075Y-6.0
X10.075Y-6.275
X10.1Y-4.25
T5
X8.2Y-5.2
X8.2Y-5.3
X8.2Y-5.4
X8.2Y-5.5
X8.2Y-5.6
X8.2Y-5.7
X8.2Y-5.8
X8.2Y-5.9
X9.1Y-5.2
X9.1Y-5.3
X9.1Y-5.4
X9.1Y-5.5
X9.1Y-5.6
X9.1Y-5.7
X9.1Y-5.8
X9.1Y-5.9
T6
X8.2Y-6.3441
X8.2Y-6.6
X8.3772Y-6.3441
X8.3772Y-6.6
X8.6Y-6.3441
X8.6Y-6.6
X8.7772Y-6.3441
X8.7772Y-6.6
X9.0Y-6.3441
X9.0Y-6.6
X9.1772Y-6.3441
X9.1772Y-6.6
T0
M30
