%TF.GenerationSoftware,KiCad,Pcbnew,5.1.10-8.fc34*%
%TF.CreationDate,2021-11-19T15:19:54+01:00*%
%TF.ProjectId,lampe,6c616d70-652e-46b6-9963-61645f706362,rev?*%
%TF.SameCoordinates,Original*%
%TF.FileFunction,Soldermask,Top*%
%TF.FilePolarity,Negative*%
%FSLAX46Y46*%
G04 Gerber Fmt 4.6, Leading zero omitted, Abs format (unit mm)*
G04 Created by KiCad (PCBNEW 5.1.10-8.fc34) date 2021-11-19 15:19:54*
%MOMM*%
%LPD*%
G01*
G04 APERTURE LIST*
%ADD10O,1.070000X1.800000*%
%ADD11R,1.070000X1.800000*%
%ADD12C,2.200000*%
%ADD13O,1.600000X1.600000*%
%ADD14C,1.600000*%
%ADD15O,2.000000X1.600000*%
%ADD16R,2.000000X2.000000*%
%ADD17C,2.000000*%
%ADD18R,1.050000X1.500000*%
%ADD19O,1.050000X1.500000*%
G04 APERTURE END LIST*
D10*
%TO.C,D9*%
X252095000Y-138430000D03*
X253365000Y-138430000D03*
X254635000Y-138430000D03*
D11*
X255905000Y-138430000D03*
%TD*%
D10*
%TO.C,D4*%
X196215000Y-138430000D03*
X194945000Y-138430000D03*
X193675000Y-138430000D03*
D11*
X192405000Y-138430000D03*
%TD*%
D12*
%TO.C,REF\u002A\u002A*%
X215265000Y-141605000D03*
%TD*%
D13*
%TO.C,B14*%
X227330000Y-115570000D03*
D14*
X227330000Y-105410000D03*
%TD*%
D13*
%TO.C,G14*%
X224155000Y-115570000D03*
D14*
X224155000Y-105410000D03*
%TD*%
D13*
%TO.C,R14*%
X220980000Y-115570000D03*
D14*
X220980000Y-105410000D03*
%TD*%
D13*
%TO.C,B13*%
X217805000Y-115570000D03*
D14*
X217805000Y-105410000D03*
%TD*%
D13*
%TO.C,G13*%
X214630000Y-115570000D03*
D14*
X214630000Y-105410000D03*
%TD*%
D10*
%TO.C,D17*%
X256540000Y-107950000D03*
X255270000Y-107950000D03*
X254000000Y-107950000D03*
D11*
X252730000Y-107950000D03*
%TD*%
D12*
%TO.C,REF\u002A\u002A*%
X194310000Y-123190000D03*
%TD*%
%TO.C,REF\u002A\u002A*%
X254000000Y-123190000D03*
%TD*%
%TO.C,REF\u002A\u002A*%
X254000000Y-167640000D03*
%TD*%
%TO.C,REF\u002A\u002A*%
X194310000Y-167640000D03*
%TD*%
D13*
%TO.C,R5*%
X201930000Y-123190000D03*
D14*
X199390000Y-123190000D03*
%TD*%
D13*
%TO.C,G5*%
X201930000Y-126365000D03*
D14*
X199390000Y-126365000D03*
%TD*%
D10*
%TO.C,D5*%
X196215000Y-131445000D03*
X194945000Y-131445000D03*
X193675000Y-131445000D03*
D11*
X192405000Y-131445000D03*
%TD*%
D13*
%TO.C,B5*%
X201930000Y-129540000D03*
D14*
X199390000Y-129540000D03*
%TD*%
D15*
%TO.C,U1*%
X208280000Y-149860000D03*
X208280000Y-147320000D03*
X208280000Y-144780000D03*
X208280000Y-142240000D03*
X208280000Y-139700000D03*
X208280000Y-137160000D03*
X208280000Y-134620000D03*
X208280000Y-132080000D03*
X231140000Y-132080000D03*
X231140000Y-134620000D03*
X231140000Y-137160000D03*
X231140000Y-139700000D03*
X231140000Y-142240000D03*
X231140000Y-144780000D03*
D16*
X231140000Y-149860000D03*
D15*
X231140000Y-147320000D03*
%TD*%
D17*
%TO.C,Z1*%
X228600000Y-161140000D03*
X233100000Y-161140000D03*
X228600000Y-167640000D03*
X233100000Y-167640000D03*
%TD*%
%TO.C,Y1*%
X218440000Y-161140000D03*
X222940000Y-161140000D03*
X218440000Y-167640000D03*
X222940000Y-167640000D03*
%TD*%
%TO.C,X1*%
X208280000Y-161140000D03*
X212780000Y-161140000D03*
X208280000Y-167640000D03*
X212780000Y-167640000D03*
%TD*%
D13*
%TO.C,R17*%
X250190000Y-115570000D03*
D14*
X250190000Y-113030000D03*
%TD*%
D13*
%TO.C,R16*%
X240665000Y-115570000D03*
D14*
X240665000Y-113030000D03*
%TD*%
D13*
%TO.C,R15*%
X231140000Y-115570000D03*
D14*
X231140000Y-113030000D03*
%TD*%
D13*
%TO.C,R13*%
X211455000Y-115570000D03*
D14*
X211455000Y-113030000D03*
%TD*%
D13*
%TO.C,R12*%
X201930000Y-115570000D03*
D14*
X201930000Y-113030000D03*
%TD*%
D13*
%TO.C,R11*%
X192405000Y-115570000D03*
D14*
X192405000Y-113030000D03*
%TD*%
D13*
%TO.C,R10*%
X246380000Y-123190000D03*
D14*
X248920000Y-123190000D03*
%TD*%
D13*
%TO.C,R9*%
X246380000Y-132715000D03*
D14*
X248920000Y-132715000D03*
%TD*%
D13*
%TO.C,R8*%
X246380000Y-142240000D03*
D14*
X248920000Y-142240000D03*
%TD*%
D13*
%TO.C,R7*%
X246380000Y-151765000D03*
D14*
X248920000Y-151765000D03*
%TD*%
D13*
%TO.C,R6*%
X246380000Y-161290000D03*
D14*
X248920000Y-161290000D03*
%TD*%
D13*
%TO.C,R4*%
X201930000Y-132715000D03*
D14*
X199390000Y-132715000D03*
%TD*%
D13*
%TO.C,R3*%
X201930000Y-142240000D03*
D14*
X199390000Y-142240000D03*
%TD*%
D13*
%TO.C,R2*%
X201930000Y-151765000D03*
D14*
X199390000Y-151765000D03*
%TD*%
D13*
%TO.C,R1*%
X201930000Y-161290000D03*
D14*
X199390000Y-161290000D03*
%TD*%
D13*
%TO.C,G17*%
X253365000Y-115570000D03*
D14*
X253365000Y-113030000D03*
%TD*%
D13*
%TO.C,G16*%
X243840000Y-115570000D03*
D14*
X243840000Y-113030000D03*
%TD*%
D13*
%TO.C,G15*%
X234315000Y-115570000D03*
D14*
X234315000Y-113030000D03*
%TD*%
D13*
%TO.C,G12*%
X205105000Y-115570000D03*
D14*
X205105000Y-113030000D03*
%TD*%
D13*
%TO.C,G11*%
X195580000Y-115570000D03*
D14*
X195580000Y-113030000D03*
%TD*%
D13*
%TO.C,G10*%
X246380000Y-126365000D03*
D14*
X248920000Y-126365000D03*
%TD*%
D13*
%TO.C,RpG9*%
X246380000Y-135890000D03*
D14*
X248920000Y-135890000D03*
%TD*%
D13*
%TO.C,G8*%
X246380000Y-145415000D03*
D14*
X248920000Y-145415000D03*
%TD*%
D13*
%TO.C,G7*%
X246380000Y-154940000D03*
D14*
X248920000Y-154940000D03*
%TD*%
D13*
%TO.C,G6*%
X246380000Y-164465000D03*
D14*
X248920000Y-164465000D03*
%TD*%
D13*
%TO.C,G4*%
X201930000Y-135890000D03*
D14*
X199390000Y-135890000D03*
%TD*%
D13*
%TO.C,G3*%
X201930000Y-145415000D03*
D14*
X199390000Y-145415000D03*
%TD*%
D13*
%TO.C,G2*%
X201930000Y-154940000D03*
D14*
X199390000Y-154940000D03*
%TD*%
D13*
%TO.C,G1*%
X201930000Y-164465000D03*
D14*
X199390000Y-164465000D03*
%TD*%
D13*
%TO.C,B17*%
X256540000Y-115570000D03*
D14*
X256540000Y-113030000D03*
%TD*%
D13*
%TO.C,B16*%
X247015000Y-115570000D03*
D14*
X247015000Y-113030000D03*
%TD*%
D13*
%TO.C,B15*%
X237490000Y-115570000D03*
D14*
X237490000Y-113030000D03*
%TD*%
D13*
%TO.C,B12*%
X208280000Y-115570000D03*
D14*
X208280000Y-113030000D03*
%TD*%
D13*
%TO.C,B11*%
X198755000Y-115570000D03*
D14*
X198755000Y-113030000D03*
%TD*%
D13*
%TO.C,B10*%
X246380000Y-129540000D03*
D14*
X248920000Y-129540000D03*
%TD*%
D13*
%TO.C,RpB9*%
X246380000Y-139065000D03*
D14*
X248920000Y-139065000D03*
%TD*%
D13*
%TO.C,B8*%
X246380000Y-148590000D03*
D14*
X248920000Y-148590000D03*
%TD*%
D13*
%TO.C,B7*%
X246380000Y-158115000D03*
D14*
X248920000Y-158115000D03*
%TD*%
D13*
%TO.C,B6*%
X246380000Y-167640000D03*
D14*
X248920000Y-167640000D03*
%TD*%
D13*
%TO.C,B4*%
X201930000Y-139065000D03*
D14*
X199390000Y-139065000D03*
%TD*%
D13*
%TO.C,B3*%
X201930000Y-148590000D03*
D14*
X199390000Y-148590000D03*
%TD*%
D13*
%TO.C,B2*%
X201930000Y-158115000D03*
D14*
X199390000Y-158115000D03*
%TD*%
D13*
%TO.C,B1*%
X201930000Y-167640000D03*
D14*
X199390000Y-167640000D03*
%TD*%
D13*
%TO.C,RZ1*%
X236855000Y-167640000D03*
D14*
X239395000Y-167640000D03*
%TD*%
D13*
%TO.C,RY1*%
X236855000Y-163830000D03*
D14*
X239395000Y-163830000D03*
%TD*%
D13*
%TO.C,RX1*%
X236855000Y-160020000D03*
D14*
X239395000Y-160020000D03*
%TD*%
D13*
%TO.C,CR1*%
X236855000Y-154813000D03*
D14*
X239395000Y-154813000D03*
%TD*%
D13*
%TO.C,CG1*%
X236855000Y-147320000D03*
D14*
X239395000Y-147320000D03*
%TD*%
D13*
%TO.C,CB1*%
X236855000Y-151130000D03*
D14*
X239395000Y-151130000D03*
%TD*%
D18*
%TO.C,QR1*%
X236220000Y-127000000D03*
D19*
X238760000Y-127000000D03*
X237490000Y-127000000D03*
%TD*%
D18*
%TO.C,QG1*%
X236220000Y-132080000D03*
D19*
X238760000Y-132080000D03*
X237490000Y-132080000D03*
%TD*%
D18*
%TO.C,QB1*%
X236220000Y-137160000D03*
D19*
X238760000Y-137160000D03*
X237490000Y-137160000D03*
%TD*%
D10*
%TO.C,D16*%
X249555000Y-107950000D03*
X248285000Y-107950000D03*
X247015000Y-107950000D03*
D11*
X245745000Y-107950000D03*
%TD*%
D10*
%TO.C,D15*%
X242570000Y-107950000D03*
X241300000Y-107950000D03*
X240030000Y-107950000D03*
D11*
X238760000Y-107950000D03*
%TD*%
D10*
%TO.C,D14*%
X235585000Y-107950000D03*
X234315000Y-107950000D03*
X233045000Y-107950000D03*
D11*
X231775000Y-107950000D03*
%TD*%
D10*
%TO.C,D13*%
X210185000Y-107950000D03*
X208915000Y-107950000D03*
X207645000Y-107950000D03*
D11*
X206375000Y-107950000D03*
%TD*%
D10*
%TO.C,D12*%
X203200000Y-107950000D03*
X201930000Y-107950000D03*
X200660000Y-107950000D03*
D11*
X199390000Y-107950000D03*
%TD*%
D10*
%TO.C,D11*%
X196215000Y-107950000D03*
X194945000Y-107950000D03*
X193675000Y-107950000D03*
D11*
X192405000Y-107950000D03*
%TD*%
D10*
%TO.C,D10*%
X252095000Y-131445000D03*
X253365000Y-131445000D03*
X254635000Y-131445000D03*
D11*
X255905000Y-131445000D03*
%TD*%
D10*
%TO.C,D8*%
X252095000Y-145415000D03*
X253365000Y-145415000D03*
X254635000Y-145415000D03*
D11*
X255905000Y-145415000D03*
%TD*%
D10*
%TO.C,D7*%
X252095000Y-152400000D03*
X253365000Y-152400000D03*
X254635000Y-152400000D03*
D11*
X255905000Y-152400000D03*
%TD*%
D10*
%TO.C,D6*%
X252095000Y-159385000D03*
X253365000Y-159385000D03*
X254635000Y-159385000D03*
D11*
X255905000Y-159385000D03*
%TD*%
D10*
%TO.C,D3*%
X196215000Y-145415000D03*
X194945000Y-145415000D03*
X193675000Y-145415000D03*
D11*
X192405000Y-145415000D03*
%TD*%
D10*
%TO.C,D2*%
X196215000Y-152400000D03*
X194945000Y-152400000D03*
X193675000Y-152400000D03*
D11*
X192405000Y-152400000D03*
%TD*%
D10*
%TO.C,D1*%
X196215000Y-159385000D03*
X194945000Y-159385000D03*
X193675000Y-159385000D03*
D11*
X192405000Y-159385000D03*
%TD*%
M02*
