M48
; DRILL file {KiCad 6.0.2-1.fc35} date Mon 11 Apr 2022 09:16:40 PM CEST
; FORMAT={-:-/ absolute / metric / decimal}
; #@! TF.CreationDate,2022-04-11T21:16:40+02:00
; #@! TF.GenerationSoftware,Kicad,Pcbnew,6.0.2-1.fc35
; #@! TF.FileFunction,Plated,1,2,PTH
FMAT,2
METRIC
; #@! TA.AperFunction,Plated,PTH,ViaDrill
T1C0.400
; #@! TA.AperFunction,Plated,PTH,ComponentDrill
T2C0.750
; #@! TA.AperFunction,Plated,PTH,ComponentDrill
T3C0.800
; #@! TA.AperFunction,Plated,PTH,ComponentDrill
T4C0.900
; #@! TA.AperFunction,Plated,PTH,ComponentDrill
T5C1.000
; #@! TA.AperFunction,Plated,PTH,ComponentDrill
T6C1.100
%
G90
G05
T1
X178.625Y-126.047
X178.752Y-148.145
X180.403Y-97.98
X181.61Y-155.892
X181.927Y-110.807
X181.927Y-125.92
X182.054Y-148.272
X182.816Y-119.825
X185.102Y-112.078
X186.88Y-97.98
X187.007Y-119.951
X187.007Y-123.126
X187.007Y-126.301
X187.007Y-129.603
X187.007Y-132.779
X187.007Y-135.953
X187.007Y-139.129
X187.007Y-142.177
X187.007Y-145.351
X187.007Y-148.653
X187.007Y-151.828
X187.007Y-155.004
X187.007Y-158.178
X190.183Y-112.078
X190.183Y-116.522
X191.452Y-110.807
X191.452Y-118.427
X191.452Y-122.237
X191.452Y-127.953
X191.452Y-137.477
X191.452Y-147.002
X191.452Y-156.528
X192.722Y-109.537
X192.722Y-115.252
X192.722Y-124.777
X192.722Y-134.302
X192.722Y-143.827
X192.722Y-153.352
X193.611Y-97.853
X194.246Y-119.444
X194.627Y-112.078
X194.627Y-116.522
X194.627Y-122.237
X194.627Y-156.528
X196.442Y-140.017
X197.167Y-115.252
X198.31Y-120.078
X199.072Y-139.382
X199.581Y-120.078
X200.343Y-124.142
X200.85Y-120.078
X200.977Y-110.807
X200.977Y-126.682
X200.977Y-138.112
X200.977Y-140.653
X201.612Y-124.142
X202.248Y-126.682
X202.882Y-124.142
X203.391Y-100.774
X203.391Y-104.584
X203.517Y-126.682
X204.025Y-115.125
X204.153Y-112.078
X204.787Y-156.528
X205.296Y-100.774
X205.296Y-104.584
X205.296Y-115.125
X206.565Y-115.125
X206.946Y-100.774
X206.946Y-104.584
X207.962Y-155.257
X210.502Y-110.807
X210.502Y-138.112
X210.502Y-155.257
X211.772Y-120.332
X211.772Y-123.507
X213.042Y-120.332
X213.042Y-123.507
X213.36Y-140.97
X213.677Y-112.078
X213.677Y-139.382
X214.185Y-115.125
X214.312Y-120.332
X214.312Y-123.507
X214.947Y-156.528
X215.582Y-105.727
X215.582Y-106.997
X215.582Y-108.267
X215.582Y-113.728
X215.582Y-115.252
X216.218Y-156.528
X217.487Y-156.528
X220.662Y-110.807
X222.567Y-115.252
X223.837Y-112.078
X223.837Y-115.252
X224.345Y-157.797
X224.472Y-153.987
X225.107Y-115.252
X228.282Y-112.078
X228.282Y-121.602
X228.282Y-129.222
X228.282Y-131.127
X228.282Y-140.653
X228.282Y-150.177
X229.552Y-117.792
X229.552Y-127.953
X229.552Y-137.477
X229.552Y-147.002
X229.552Y-158.433
X230.188Y-110.807
X230.822Y-154.623
X231.457Y-109.537
X233.362Y-112.078
X233.87Y-116.903
X233.87Y-126.301
X233.87Y-145.478
X233.998Y-119.951
X233.998Y-123.253
X233.998Y-129.476
X233.998Y-132.651
X233.998Y-135.7
X233.998Y-139.001
X233.998Y-142.177
X233.998Y-148.526
X233.998Y-151.828
X233.998Y-154.749
X233.998Y-158.178
X237.172Y-148.272
X238.95Y-155.892
T2
X222.636Y-119.084
X222.636Y-124.164
X222.636Y-129.244
X224.414Y-119.084
X224.414Y-124.164
X224.414Y-129.244
X226.192Y-119.084
X226.192Y-124.164
X226.192Y-129.244
T3
X178.752Y-105.093
X178.752Y-107.632
X181.927Y-105.093
X181.927Y-107.632
X185.102Y-105.093
X185.102Y-107.632
X185.737Y-115.252
X185.737Y-118.427
X185.737Y-121.602
X185.737Y-124.777
X185.737Y-127.953
X185.737Y-131.127
X185.737Y-134.302
X185.737Y-137.477
X185.737Y-140.653
X185.737Y-143.827
X185.737Y-147.002
X185.737Y-150.177
X185.737Y-153.352
X185.737Y-156.528
X185.737Y-159.702
X188.278Y-105.093
X188.278Y-107.632
X188.278Y-115.252
X188.278Y-118.427
X188.278Y-121.602
X188.278Y-124.777
X188.278Y-127.953
X188.278Y-131.127
X188.278Y-134.302
X188.278Y-137.477
X188.278Y-140.653
X188.278Y-143.827
X188.278Y-147.002
X188.278Y-150.177
X188.278Y-153.352
X188.278Y-156.528
X188.278Y-159.702
X191.452Y-105.093
X191.452Y-107.632
X194.627Y-105.093
X194.627Y-107.632
X197.802Y-105.093
X197.802Y-107.632
X200.977Y-97.472
X200.977Y-107.632
X204.153Y-97.472
X204.153Y-107.632
X207.327Y-97.472
X207.327Y-107.632
X210.502Y-97.472
X210.502Y-107.632
X213.677Y-97.472
X213.677Y-107.632
X217.487Y-105.093
X217.487Y-107.632
X220.662Y-105.093
X220.662Y-107.632
X223.202Y-139.382
X223.202Y-143.192
X223.202Y-146.875
X223.202Y-152.082
X223.202Y-155.892
X223.202Y-159.702
X223.837Y-105.093
X223.837Y-107.632
X225.742Y-139.382
X225.742Y-143.192
X225.742Y-146.875
X225.742Y-152.082
X225.742Y-155.892
X225.742Y-159.702
X227.012Y-105.093
X227.012Y-107.632
X230.188Y-105.093
X230.188Y-107.632
X232.727Y-115.252
X232.727Y-118.427
X232.727Y-121.602
X232.727Y-124.777
X232.727Y-127.953
X232.727Y-131.127
X232.727Y-134.302
X232.727Y-137.477
X232.727Y-140.653
X232.727Y-143.827
X232.727Y-147.002
X232.727Y-150.177
X232.727Y-153.352
X232.727Y-156.528
X232.727Y-159.702
X233.362Y-105.093
X233.362Y-107.632
X235.267Y-115.252
X235.267Y-118.427
X235.267Y-121.602
X235.267Y-124.777
X235.267Y-127.953
X235.267Y-131.127
X235.267Y-134.302
X235.267Y-137.477
X235.267Y-140.653
X235.267Y-143.827
X235.267Y-147.002
X235.267Y-150.177
X235.267Y-153.352
X235.267Y-156.528
X235.267Y-159.702
X236.537Y-105.093
X236.537Y-107.632
X239.712Y-105.093
X239.712Y-107.632
X242.887Y-105.093
X242.887Y-107.632
T4
X178.308Y-123.572
X178.308Y-130.556
X178.308Y-137.541
X178.308Y-144.526
X178.308Y-151.575
X178.752Y-100.076
X179.959Y-123.572
X179.959Y-130.556
X179.959Y-137.541
X179.959Y-144.526
X179.959Y-151.575
X180.403Y-100.076
X181.61Y-123.572
X181.61Y-130.556
X181.61Y-137.541
X181.61Y-144.526
X181.61Y-151.575
X182.054Y-100.076
X183.261Y-123.572
X183.261Y-130.556
X183.261Y-137.541
X183.261Y-144.526
X183.261Y-151.575
X183.706Y-100.076
X185.737Y-100.076
X187.388Y-100.076
X189.04Y-100.076
X190.69Y-100.076
X192.722Y-100.076
X194.373Y-100.076
X196.024Y-100.076
X197.675Y-100.076
X216.789Y-100.076
X218.44Y-100.076
X220.091Y-100.076
X221.742Y-100.076
X224.282Y-100.076
X225.933Y-100.076
X227.584Y-100.076
X229.235Y-100.076
X231.521Y-100.076
X233.172Y-100.076
X234.823Y-100.076
X236.474Y-100.076
X237.617Y-123.444
X237.617Y-130.428
X237.617Y-137.413
X237.617Y-144.398
X237.617Y-151.383
X238.76Y-100.076
X239.268Y-123.444
X239.268Y-130.428
X239.268Y-137.413
X239.268Y-144.398
X239.268Y-151.383
X240.411Y-100.076
X240.919Y-123.444
X240.919Y-130.428
X240.919Y-137.413
X240.919Y-144.398
X240.919Y-151.383
X242.062Y-100.076
X242.57Y-123.444
X242.57Y-130.428
X242.57Y-137.413
X242.57Y-144.398
X242.57Y-151.383
X243.713Y-100.076
T5
X194.627Y-124.142
X194.627Y-126.682
X194.627Y-129.222
X194.627Y-131.762
X194.627Y-134.302
X194.627Y-136.843
X194.627Y-139.382
X194.627Y-141.922
X217.487Y-124.142
X217.487Y-126.682
X217.487Y-129.222
X217.487Y-131.762
X217.487Y-134.302
X217.487Y-136.843
X217.487Y-139.382
X217.487Y-141.922
T6
X194.627Y-153.202
X194.627Y-159.702
X199.127Y-153.202
X199.127Y-159.702
X204.787Y-153.202
X204.787Y-159.702
X209.287Y-153.202
X209.287Y-159.702
X214.947Y-153.202
X214.947Y-159.702
X219.447Y-153.202
X219.447Y-159.702
T0
M30
