%TF.GenerationSoftware,KiCad,Pcbnew,6.0.2-1.fc35*%
%TF.CreationDate,2022-04-11T21:16:46+02:00*%
%TF.ProjectId,lampe,6c616d70-652e-46b6-9963-61645f706362,v2*%
%TF.SameCoordinates,Original*%
%TF.FileFunction,Soldermask,Top*%
%TF.FilePolarity,Negative*%
%FSLAX46Y46*%
G04 Gerber Fmt 4.6, Leading zero omitted, Abs format (unit mm)*
G04 Created by KiCad (PCBNEW 6.0.2-1.fc35) date 2022-04-11 21:16:46*
%MOMM*%
%LPD*%
G01*
G04 APERTURE LIST*
%ADD10R,1.070000X1.800000*%
%ADD11O,1.070000X1.800000*%
%ADD12R,1.050000X1.500000*%
%ADD13O,1.050000X1.500000*%
%ADD14C,1.600000*%
%ADD15O,1.600000X1.600000*%
%ADD16C,2.000000*%
%ADD17R,2.000000X2.000000*%
%ADD18O,2.000000X1.600000*%
%ADD19C,2.200000*%
G04 APERTURE END LIST*
D10*
%TO.C,D1*%
X178308000Y-151575000D03*
D11*
X179959000Y-151575000D03*
X181610000Y-151575000D03*
X183261000Y-151575000D03*
%TD*%
D10*
%TO.C,D2*%
X178308000Y-144526500D03*
D11*
X179959000Y-144526500D03*
X181610000Y-144526500D03*
X183261000Y-144526500D03*
%TD*%
D10*
%TO.C,D3*%
X178308000Y-137541500D03*
D11*
X179959000Y-137541500D03*
X181610000Y-137541500D03*
X183261000Y-137541500D03*
%TD*%
D10*
%TO.C,D4*%
X178308000Y-130556500D03*
D11*
X179959000Y-130556500D03*
X181610000Y-130556500D03*
X183261000Y-130556500D03*
%TD*%
D10*
%TO.C,D5*%
X178308000Y-123571500D03*
D11*
X179959000Y-123571500D03*
X181610000Y-123571500D03*
X183261000Y-123571500D03*
%TD*%
D10*
%TO.C,D7*%
X242570000Y-144398500D03*
D11*
X240919000Y-144398500D03*
X239268000Y-144398500D03*
X237617000Y-144398500D03*
%TD*%
%TO.C,D8*%
X237617000Y-137413500D03*
X239268000Y-137413500D03*
X240919000Y-137413500D03*
D10*
X242570000Y-137413500D03*
%TD*%
D11*
%TO.C,D9*%
X237617000Y-130428500D03*
X239268000Y-130428500D03*
X240919000Y-130428500D03*
D10*
X242570000Y-130428500D03*
%TD*%
%TO.C,D10*%
X242570000Y-123443500D03*
D11*
X240919000Y-123443500D03*
X239268000Y-123443500D03*
X237617000Y-123443500D03*
%TD*%
D10*
%TO.C,D11*%
X178752500Y-100076500D03*
D11*
X180403500Y-100076500D03*
X182054500Y-100076500D03*
X183705500Y-100076500D03*
%TD*%
D10*
%TO.C,D12*%
X185737500Y-100076500D03*
D11*
X187388500Y-100076500D03*
X189039500Y-100076500D03*
X190690500Y-100076500D03*
%TD*%
D10*
%TO.C,D13*%
X192722500Y-100076500D03*
D11*
X194373500Y-100076500D03*
X196024500Y-100076500D03*
X197675500Y-100076500D03*
%TD*%
D10*
%TO.C,D14*%
X216789000Y-100076500D03*
D11*
X218440000Y-100076500D03*
X220091000Y-100076500D03*
X221742000Y-100076500D03*
%TD*%
D10*
%TO.C,D15*%
X224282000Y-100076500D03*
D11*
X225933000Y-100076500D03*
X227584000Y-100076500D03*
X229235000Y-100076500D03*
%TD*%
D10*
%TO.C,D16*%
X231521000Y-100076500D03*
D11*
X233172000Y-100076500D03*
X234823000Y-100076500D03*
X236474000Y-100076500D03*
%TD*%
D10*
%TO.C,D17*%
X238760000Y-100076500D03*
D11*
X240411000Y-100076500D03*
X242062000Y-100076500D03*
X243713000Y-100076500D03*
%TD*%
D12*
%TO.C,QB1*%
X222635721Y-129244500D03*
D13*
X224413721Y-129244500D03*
X226191721Y-129244500D03*
%TD*%
D12*
%TO.C,QG1*%
X222635721Y-124164500D03*
D13*
X224413721Y-124164500D03*
X226191721Y-124164500D03*
%TD*%
D12*
%TO.C,QR1*%
X222635721Y-119084500D03*
D13*
X224413721Y-119084500D03*
X226191721Y-119084500D03*
%TD*%
D14*
%TO.C,CB1*%
X225742500Y-143192500D03*
D15*
X223202500Y-143192500D03*
%TD*%
D14*
%TO.C,CG1*%
X225742500Y-139382500D03*
D15*
X223202500Y-139382500D03*
%TD*%
D14*
%TO.C,CR1*%
X225742500Y-146875500D03*
D15*
X223202500Y-146875500D03*
%TD*%
D14*
%TO.C,RX1*%
X225742500Y-152082500D03*
D15*
X223202500Y-152082500D03*
%TD*%
D14*
%TO.C,RY1*%
X225742500Y-155892500D03*
D15*
X223202500Y-155892500D03*
%TD*%
D14*
%TO.C,RZ1*%
X225742500Y-159702500D03*
D15*
X223202500Y-159702500D03*
%TD*%
D14*
%TO.C,B1*%
X185737500Y-159702500D03*
D15*
X188277500Y-159702500D03*
%TD*%
D14*
%TO.C,B2*%
X185737500Y-150177500D03*
D15*
X188277500Y-150177500D03*
%TD*%
D14*
%TO.C,B3*%
X185737500Y-140652500D03*
D15*
X188277500Y-140652500D03*
%TD*%
D14*
%TO.C,B4*%
X185737500Y-131127500D03*
D15*
X188277500Y-131127500D03*
%TD*%
D14*
%TO.C,B5*%
X185737500Y-121602500D03*
D15*
X188277500Y-121602500D03*
%TD*%
D14*
%TO.C,B7*%
X235267500Y-150177500D03*
D15*
X232727500Y-150177500D03*
%TD*%
D14*
%TO.C,B8*%
X235267500Y-140652500D03*
D15*
X232727500Y-140652500D03*
%TD*%
D14*
%TO.C,RpB9*%
X235267500Y-131127500D03*
D15*
X232727500Y-131127500D03*
%TD*%
D14*
%TO.C,B10*%
X235267500Y-121602500D03*
D15*
X232727500Y-121602500D03*
%TD*%
D14*
%TO.C,B11*%
X185102500Y-105092500D03*
D15*
X185102500Y-107632500D03*
%TD*%
D14*
%TO.C,B12*%
X194627500Y-105092500D03*
D15*
X194627500Y-107632500D03*
%TD*%
D14*
%TO.C,B13*%
X204152500Y-97472500D03*
D15*
X204152500Y-107632500D03*
%TD*%
D14*
%TO.C,B14*%
X213677500Y-97472500D03*
D15*
X213677500Y-107632500D03*
%TD*%
D14*
%TO.C,B15*%
X223837500Y-105092500D03*
D15*
X223837500Y-107632500D03*
%TD*%
D14*
%TO.C,B16*%
X233362500Y-105092500D03*
D15*
X233362500Y-107632500D03*
%TD*%
D14*
%TO.C,B17*%
X242887500Y-105092500D03*
D15*
X242887500Y-107632500D03*
%TD*%
D14*
%TO.C,G1*%
X185737500Y-156527500D03*
D15*
X188277500Y-156527500D03*
%TD*%
D14*
%TO.C,G2*%
X185737500Y-147002500D03*
D15*
X188277500Y-147002500D03*
%TD*%
D14*
%TO.C,G3*%
X185737500Y-137477500D03*
D15*
X188277500Y-137477500D03*
%TD*%
D14*
%TO.C,G4*%
X185737500Y-127952500D03*
D15*
X188277500Y-127952500D03*
%TD*%
D14*
%TO.C,G5*%
X185737500Y-118427500D03*
D15*
X188277500Y-118427500D03*
%TD*%
D14*
%TO.C,G7*%
X235267500Y-147002500D03*
D15*
X232727500Y-147002500D03*
%TD*%
D14*
%TO.C,G8*%
X235267500Y-137477500D03*
D15*
X232727500Y-137477500D03*
%TD*%
D14*
%TO.C,RpG9*%
X235267500Y-127952500D03*
D15*
X232727500Y-127952500D03*
%TD*%
D14*
%TO.C,G10*%
X235267500Y-118427500D03*
D15*
X232727500Y-118427500D03*
%TD*%
D14*
%TO.C,G11*%
X181927500Y-105092500D03*
D15*
X181927500Y-107632500D03*
%TD*%
D14*
%TO.C,G12*%
X191452500Y-105092500D03*
D15*
X191452500Y-107632500D03*
%TD*%
D14*
%TO.C,G13*%
X200977500Y-97472500D03*
D15*
X200977500Y-107632500D03*
%TD*%
D14*
%TO.C,G14*%
X210502500Y-97472500D03*
D15*
X210502500Y-107632500D03*
%TD*%
D14*
%TO.C,G15*%
X220662500Y-105092500D03*
D15*
X220662500Y-107632500D03*
%TD*%
D14*
%TO.C,G16*%
X230187500Y-105092500D03*
D15*
X230187500Y-107632500D03*
%TD*%
D14*
%TO.C,G17*%
X239712500Y-105092500D03*
D15*
X239712500Y-107632500D03*
%TD*%
D14*
%TO.C,R1*%
X185737500Y-153352500D03*
D15*
X188277500Y-153352500D03*
%TD*%
D14*
%TO.C,R2*%
X185737500Y-143827500D03*
D15*
X188277500Y-143827500D03*
%TD*%
D14*
%TO.C,R3*%
X185737500Y-134302500D03*
D15*
X188277500Y-134302500D03*
%TD*%
D14*
%TO.C,R4*%
X185737500Y-124777500D03*
D15*
X188277500Y-124777500D03*
%TD*%
D14*
%TO.C,R5*%
X185737500Y-115252500D03*
D15*
X188277500Y-115252500D03*
%TD*%
D14*
%TO.C,R7*%
X235267500Y-143827500D03*
D15*
X232727500Y-143827500D03*
%TD*%
D14*
%TO.C,R8*%
X235267500Y-134302500D03*
D15*
X232727500Y-134302500D03*
%TD*%
D14*
%TO.C,R9*%
X235267500Y-124777500D03*
D15*
X232727500Y-124777500D03*
%TD*%
D14*
%TO.C,R10*%
X235267500Y-115252500D03*
D15*
X232727500Y-115252500D03*
%TD*%
D14*
%TO.C,R11*%
X178752500Y-105092500D03*
D15*
X178752500Y-107632500D03*
%TD*%
D14*
%TO.C,R12*%
X188277500Y-105092500D03*
D15*
X188277500Y-107632500D03*
%TD*%
D14*
%TO.C,R13*%
X197802500Y-105092500D03*
D15*
X197802500Y-107632500D03*
%TD*%
D14*
%TO.C,R14*%
X207327500Y-97472500D03*
D15*
X207327500Y-107632500D03*
%TD*%
D14*
%TO.C,R15*%
X217487500Y-105092500D03*
D15*
X217487500Y-107632500D03*
%TD*%
D14*
%TO.C,R16*%
X227012500Y-105092500D03*
D15*
X227012500Y-107632500D03*
%TD*%
D14*
%TO.C,R17*%
X236537500Y-105092500D03*
D15*
X236537500Y-107632500D03*
%TD*%
D16*
%TO.C,X1*%
X194627500Y-153202500D03*
X194627500Y-159702500D03*
X199127500Y-153202500D03*
X199127500Y-159702500D03*
%TD*%
%TO.C,Y1*%
X204787500Y-159702500D03*
X204787500Y-153202500D03*
X209287500Y-159702500D03*
X209287500Y-153202500D03*
%TD*%
%TO.C,Z1*%
X214947500Y-153202500D03*
X214947500Y-159702500D03*
X219447500Y-159702500D03*
X219447500Y-153202500D03*
%TD*%
D17*
%TO.C,U1*%
X217487500Y-141922500D03*
D18*
X217487500Y-139382500D03*
X217487500Y-136842500D03*
X217487500Y-134302500D03*
X217487500Y-131762500D03*
X217487500Y-129222500D03*
X217487500Y-126682500D03*
X217487500Y-124142500D03*
X194627500Y-124142500D03*
X194627500Y-126682500D03*
X194627500Y-129222500D03*
X194627500Y-131762500D03*
X194627500Y-134302500D03*
X194627500Y-136842500D03*
X194627500Y-139382500D03*
X194627500Y-141922500D03*
%TD*%
D10*
%TO.C,D6*%
X242570000Y-151383500D03*
D11*
X240919000Y-151383500D03*
X239268000Y-151383500D03*
X237617000Y-151383500D03*
%TD*%
D14*
%TO.C,R6*%
X235267500Y-153352500D03*
D15*
X232727500Y-153352500D03*
%TD*%
D14*
%TO.C,B6*%
X235267500Y-159702500D03*
D15*
X232727500Y-159702500D03*
%TD*%
D14*
%TO.C,G6*%
X235267500Y-156527500D03*
D15*
X232727500Y-156527500D03*
%TD*%
D19*
%TO.C,REF\u002A\u002A*%
X180657500Y-159702500D03*
%TD*%
%TO.C,REF\u002A\u002A*%
X240347500Y-159702500D03*
%TD*%
%TO.C,REF\u002A\u002A*%
X240347500Y-115252500D03*
%TD*%
%TO.C,REF\u002A\u002A*%
X180657500Y-115252500D03*
%TD*%
%TO.C,REF\u002A\u002A*%
X201612500Y-133667500D03*
%TD*%
M02*
